<svg width="34" height="32" viewBox="0 0 34 32" fill="none" xmlns="http://www.w3.org/2000/svg">
<g id="Frame 19">
<g id="Group 8">
<path id="Vector 21" d="M29.7261 11.5299C30.9969 15.3423 23.5518 18.7332 23.5518 18.7332C23.5518 18.7332 25.1468 21.666 24.5809 23.3639C24.0149 25.0618 22.1026 26.239 19.9503 25.9365C17.8351 25.6393 16.8631 21.8204 16.8631 21.8204C16.8631 21.8204 16.9367 27.7799 13.2614 27.9946C11.6755 28.0873 10.1743 26.9656 9.14522 25.9365C7.32611 24.1174 7.60176 21.3058 7.60176 21.3058C7.60176 21.3058 4 19.7623 4 17.1896C4 13.7678 10.6888 11.5299 10.6888 11.5299C10.6888 11.5299 9.9512 7.04511 11.7178 5.35561C13.3414 3.80293 15.1999 3.77461 17.3776 4.32657C20.2731 5.06048 22.5228 9.98631 22.5228 9.98631C22.5228 9.98631 28.6971 8.44281 29.7261 11.5299Z" fill="#57AAE0" stroke="#57AAE0" stroke-width="8" stroke-linecap="round"/>
<circle id="Ellipse 5" cx="15.8856" cy="16.6239" r="2.62388" fill="#FBF8EC"/>
</g>
</g>
</svg>
