<svg width="25" height="24" viewBox="0 0 25 24" fill="none" xmlns="http://www.w3.org/2000/svg">
<rect width="25" height="24" fill="#F5F5F5"/>
<g id="Desktop - 17" clip-path="url(#clip0_1416_2)">
<rect width="1440" height="3025" transform="translate(-448 -984)" fill="#25201A"/>
<g id="Project List">
<g id="Frame 11">
<g id="Frame 9">
<g id="Frame 22">
<g id="Group 10">
<path id="Vector 21" d="M21.6948 8.97187C22.6182 11.7422 17.208 14.2064 17.208 14.2064C17.208 14.2064 18.3671 16.3376 17.9558 17.5715C17.5445 18.8053 16.1549 19.6607 14.5908 19.4409C13.0538 19.2249 12.3474 16.4498 12.3474 16.4498C12.3474 16.4498 12.4009 20.7805 9.73012 20.9365C8.57764 21.0039 7.48674 20.1887 6.73895 19.4409C5.41703 18.119 5.61734 16.0759 5.61734 16.0759C5.61734 16.0759 3 14.9542 3 13.0847C3 10.5981 7.86064 8.97184 7.86064 8.97184C7.86064 8.97184 7.32465 5.71283 8.60843 4.4851C9.78825 3.35679 11.1388 3.33621 12.7213 3.73731C14.8254 4.27063 16.4602 7.85016 16.4602 7.85016C16.4602 7.85016 20.947 6.72852 21.6948 8.97187Z" fill="#F26862" stroke="#F26862" stroke-width="5.81348" stroke-linecap="round"/>
<circle id="Ellipse 5" cx="11.637" cy="12.6733" r="1.90674" fill="#FBF8EC"/>
</g>
</g>
</g>
</g>
</g>
</g>
<defs>
<clipPath id="clip0_1416_2">
<rect width="1440" height="3025" fill="white" transform="translate(-448 -984)"/>
</clipPath>
</defs>
</svg>
